<svg xmlns="http://www.w3.org/2000/svg" width="560" height="248" viewBox="0 0 560 248" role="img" aria-labelledby="title">
    <title id="title">Language mix by bytes in public non-fork repositories</title>
    <rect x="1" y="1" width="558" height="246" rx="14" fill="#0d1117" stroke="#273441"/>
    <g font-family="Segoe UI,Arial,sans-serif"><text x="28" y="36" font-size="12" font-weight="600" fill="#8e9cab">CODE MIX / PUBLIC REPOS</text><rect x="28.00" y="64" width="197.78" height="18" fill="#64dfca"/><rect x="225.78" y="64" width="149.55" height="18" fill="#6d9eff"/><rect x="375.33" y="64" width="61.96" height="18" fill="#c69bff"/><rect x="437.29" y="64" width="42.30" height="18" fill="#f0be76"/><rect x="479.59" y="64" width="25.11" height="18" fill="#f28eae"/><rect x="504.70" y="64" width="27.30" height="18" fill="#91acbc"/><circle cx="33" cy="114" r="5" fill="#64dfca"/><text x="48" y="119" font-size="13" font-weight="600" fill="#e6edf3">TypeScript</text><text x="203" y="119" font-size="12" font-weight="400" fill="#8e9cab">39.2%</text><circle cx="298" cy="114" r="5" fill="#6d9eff"/><text x="313" y="119" font-size="13" font-weight="600" fill="#e6edf3">C++</text><text x="468" y="119" font-size="12" font-weight="400" fill="#8e9cab">29.7%</text><circle cx="33" cy="151" r="5" fill="#c69bff"/><text x="48" y="156" font-size="13" font-weight="600" fill="#e6edf3">JavaScript</text><text x="203" y="156" font-size="12" font-weight="400" fill="#8e9cab">12.3%</text><circle cx="298" cy="151" r="5" fill="#f0be76"/><text x="313" y="156" font-size="13" font-weight="600" fill="#e6edf3">Python</text><text x="468" y="156" font-size="12" font-weight="400" fill="#8e9cab">8.4%</text><circle cx="33" cy="188" r="5" fill="#f28eae"/><text x="48" y="193" font-size="13" font-weight="600" fill="#e6edf3">CSS</text><text x="203" y="193" font-size="12" font-weight="400" fill="#8e9cab">5.0%</text><circle cx="298" cy="188" r="5" fill="#91acbc"/><text x="313" y="193" font-size="13" font-weight="600" fill="#e6edf3">Other</text><text x="468" y="193" font-size="12" font-weight="400" fill="#8e9cab">5.4%</text><text x="28" y="230" font-size="10" font-weight="400" fill="#8e9cab">Code bytes, not proficiency · updated 2026-10-06</text></g></svg>